<svg width="62" height="151" viewBox="0 0 62 151" fill="none" xmlns="http://www.w3.org/2000/svg">
<path d="M25.7721 0.228777C23.2096 0.701591 20.1742 1.76924 17.688 3.08091C8.36844 8.00733 2.14524 17.4331 0.589434 28.9637C0.0403278 33.097 0.330134 37.4438 1.4436 41.8211C2.31302 45.2376 3.33497 47.9525 5.15007 51.7045C8.58199 58.7967 15.2475 68.5428 20.5403 74.2318C22.752 76.6263 27.2516 79.9208 28.2736 79.9208C28.4108 79.9208 28.5786 80.0581 28.6701 80.2106C28.8379 80.5461 28.3193 81.568 26.672 84.0999C25.589 85.7776 25.5433 86.0216 26.3517 86.0216C26.672 86.0216 27.0076 86.0979 27.1143 86.2046C27.2669 86.3572 27.8465 86.4944 29.4785 86.7385C30.0429 86.8147 30.0582 86.8452 29.9514 87.2265C29.7836 87.7603 29.6921 149.348 29.8599 149.974C29.9971 150.523 30.3937 150.69 30.592 150.279C30.6683 150.126 30.7598 136.155 30.8056 118.783C30.8513 98.269 30.9276 87.5163 31.0343 87.4096C31.1411 87.318 31.6445 87.3638 32.5291 87.5773L33.8867 87.8824L34.4815 87.3028C34.8171 86.9672 35.5797 86.4639 36.1899 86.1589C36.9525 85.7776 37.3033 85.5183 37.3338 85.3048C37.3643 85.1065 36.9983 84.5117 36.2814 83.6423C34.8628 81.8731 34.0087 80.6071 34.0087 80.2716C34.0087 80.0886 34.2832 79.875 34.8781 79.6157C37.9744 78.2888 42.1843 74.2165 46.6686 68.253C50.3141 63.3876 54.1273 57.3172 56.522 52.5586C60.2133 45.2376 61.525 40.2959 61.525 33.8596C61.5098 28.0028 60.9607 24.4796 59.3591 20.209C58.6117 18.1957 57.1169 15.2826 55.9272 13.4981C51.2598 6.49737 43.7401 1.46419 36.1288 0.228777C34.2527 -0.0762642 27.4499 -0.0762642 25.7721 0.228777Z" fill="black"/>
</svg>
